<?xml version="1.0" encoding="UTF-8" standalone="no"?>
<svg width="467px" height="246px" viewBox="0 0 467 246" version="1.1" xmlns="http://www.w3.org/2000/svg" xmlns:xlink="http://www.w3.org/1999/xlink">
    <!-- Generator: Sketch 3.7.2 (28276) - http://www.bohemiancoding.com/sketch -->
    <title>Group 17</title>
    <desc>Created with Sketch.</desc>
    <defs></defs>
    <g id="Home-alt" stroke="none" stroke-width="1" fill="none" fill-rule="evenodd">
        <g id="-" transform="translate(-35.000000, -661.000000)">
            <g id="Group-17" transform="translate(37.000000, 663.000000)">
                <g id="Group" transform="translate(123.000000, 99.000000)">
                    <g id="Group-8" transform="translate(0.565761, 0.000000)">
                        <rect id="Rectangle-84" x="161.744497" y="0" width="10.4812425" height="70.9144577"></rect>
                        <polygon id="Shape-17" fill="#FFFBF5" points="0.129721448 67.5398625 0.129721448 2.40018971 11.3931452 2.40018971 11.3931452 56.3313948 40.1158122 56.3313948 40.1158122 67.5423259"></polygon>
                        <path d="M74.16356,68.7346112 C58.1906581,68.7346112 49.8952354,58.0754816 49.8952354,42.5486746 L49.8952354,2.40018971 L61.1586592,2.40018971 L61.1586592,42.3688465 C61.1586592,51.646009 65.1752916,57.9867992 74.1659007,57.9867992 C83.1588504,57.9867992 87.1731422,51.646009 87.1731422,42.3688465 L87.1731422,2.40018971 L98.436566,2.40018971 L98.436566,42.5486746 C98.4318846,58.0754816 90.1388026,68.7346112 74.16356,68.7346112 L74.16356,68.7346112 Z" id="Shape-18" fill="#FFFBF5"></path>
                        <path d="M153.871243,61.0167806 C149.243689,65.9756038 142.785712,68.7346112 136.152183,68.7346112 C129.513972,68.7346112 123.318153,66.4362595 118.603993,61.4749729 C111.881517,54.402553 110.921832,45.6747286 110.921832,35.015599 C110.921832,24.3589328 111.881517,15.628645 118.603993,8.55622504 C123.318153,3.59493846 129.513972,1.20790436 136.152183,1.20790436 C142.785712,1.20790436 149.24603,3.77969342 153.871243,8.74098 C157.450165,12.5986636 159.28293,17.7447051 159.807245,22.8907467 L148.284004,22.8907467 C148.021846,20.0430569 147.062162,18.0206059 145.491555,16.0006183 C143.483239,13.3352201 139.990922,11.9581797 136.152183,11.9581797 C132.570919,11.9581797 129.078603,13.519975 126.634917,16.2740556 C122.358468,20.9594415 122.358468,29.046782 122.358468,35.015599 C122.358468,40.9893427 122.358468,49.0717565 126.634917,53.7571423 C129.078603,56.5136863 132.570919,58.0754816 136.152183,58.0754816 C139.993263,58.0754816 143.483239,56.6048321 145.491555,53.9394339 C147.062162,51.9194463 148.021846,49.6210946 148.284004,46.7734048 L159.807245,46.7734048 C159.28527,51.9194463 157.452506,57.1566336 153.871243,61.0167806 L153.871243,61.0167806 Z" id="Shape-19" fill="#FFFBF5"></path>
                    </g>
                    <g id="Rectangle-path-+-Rectangle-path-+-Rectangle-path-3" transform="translate(173.966758, 2.148923)" fill="#059CD8">
                        <rect id="Rectangle-path-8" x="0.143786703" y="54.1947888" width="44.2623536" height="11.2439105"></rect>
                        <rect id="Rectangle-path-9" x="0.143786703" y="27.0973944" width="44.2623536" height="11.1434264"></rect>
                        <rect id="Rectangle-path-10" x="0.143786703" y="0" width="44.2623536" height="11.2439105"></rect>
                    </g>
                    <rect id="Rectangle-85" x="218.908967" y="2.14892296" width="12.577491" height="64.4676888"></rect>
                    <path d="M267.237431,67.5398625 L256.936033,42.9181846 L243.231265,42.9181846 L243.231265,67.5398625 L231.883576,67.5398625 L231.883576,2.40018971 L257.984665,2.40018971 C272.738064,2.40018971 279.46054,12.1404713 279.46054,22.6148459 C279.46054,31.3426703 274.919592,38.2327987 268.110511,40.8957336 L279.46054,67.5398625 L267.237431,67.5398625 L267.237431,67.5398625 Z M257.984665,12.7784918 L243.144659,12.7784918 L243.144659,32.2565916 L258.160217,32.2565916 C264.533929,32.2565916 268.197116,28.7659545 268.197116,22.6123825 C268.197116,17.3751952 264.356036,12.7784918 257.984665,12.7784918 L257.984665,12.7784918 Z" id="Shape-20" fill="#FFFBF5"></path>
                    <path d="M329.661423,67.5398625 L325.644791,55.0455003 L301.027703,55.0455003 L297.00873,67.5398625 L285.661041,67.5398625 L307.399074,2.40018971 L319.706448,2.40018971 L341.444481,67.5398625 L329.661423,67.5398625 L329.661423,67.5398625 Z M313.335076,16.9145395 L304.52002,44.3863706 L322.152474,44.3863706 L313.335076,16.9145395 L313.335076,16.9145395 Z" id="Shape-21" fill="#FFFBF5"></path>
                </g>
                <g id="Group-16">
                    <g id="Group-6">
                        <path d="M121.607521,60.4951931 C121.607521,26.7263268 94.3847498,0 60.8037603,0 C27.2227707,0 -4.34619791e-06,27.0846205 0,60.4951931 C3.9720223e-06,91.0293616 26.7057251,139.790275 26.7057251,139.790275 C29.8664215,145.953571 38.0529306,150.870773 44.9881662,150.773189 L82.0341492,150.251926 C84.7898774,150.213151 86.1935729,152.259022 85.1675224,154.826182 L84.5474405,156.377615 C83.5222266,158.942682 80.4474828,161.036879 77.6981302,161.055014 L42.4403915,161.28758 C39.6828358,161.30577 38.3913786,163.343392 39.5612399,165.850306 L40.3522736,167.545425 C41.5197178,170.047159 44.7051131,172.051767 47.4696055,172.022815 L74.1379151,171.74352 C76.9012647,171.71458 78.4712557,173.824498 77.6424149,176.463072 L77.5519446,176.75108 C76.7240768,179.386557 73.8228566,181.493848 71.0575264,181.457658 L51.6985112,181.20431 C48.9396109,181.168205 47.8699172,183.047191 49.3148557,185.410256 L49.891789,186.353777 C51.3342327,188.712762 54.7357618,190.613248 57.5041616,190.598554 L69.122082,190.536888 C71.8838356,190.522229 73.8660496,192.743803 73.5519888,195.477085 L73.806119,193.26538 C73.4909354,196.008434 71.018952,198.522547 68.2780786,198.906172 C68.2780786,198.906172 -85.7043478,217.781195 167.162084,235.833729" id="Oval-9" stroke="#1E3055" stroke-width="4"></path>
                        <rect id="Rectangle-16" fill="#059CD8" x="38.0908213" y="47.3904911" width="43.1027714" height="11.4734873"></rect>
                        <rect id="Rectangle-37" fill="#059CD8" x="38.0908213" y="72.8317021" width="43.1027714" height="11.4734873"></rect>
                        <rect id="Rectangle-38" fill="#059CD8" x="38.0908213" y="98.7717604" width="43.1027714" height="11.4734873"></rect>
                        <ellipse id="Oval-25" fill="#059CD8" cx="168.448573" cy="236.472212" rx="7.30760224" ry="7.27337133"></ellipse>
                    </g>
                    <ellipse id="Oval-25" fill="#059CD8" cx="41.2725145" cy="203.914722" rx="7.30760224" ry="7.27337133"></ellipse>
                    <ellipse id="Oval-25" fill="#059CD8" cx="60.8280701" cy="149.349321" rx="7.30760224" ry="7.27337133"></ellipse>
                    <ellipse id="Oval-25" fill="#059CD8" cx="18.6292397" cy="121.551852" rx="7.30760224" ry="7.27337133"></ellipse>
                    <ellipse id="Oval-25" fill="#059CD8" cx="121.553216" cy="54.6320211" rx="7.30760224" ry="7.27337133"></ellipse>
                    <ellipse id="Oval-25" fill="#059CD8" cx="18.6292397" cy="17.56873" rx="7.30760224" ry="7.27337133"></ellipse>
                </g>
            </g>
        </g>
    </g>
</svg>