<?xml version="1.0" encoding="UTF-8" standalone="no"?>
<svg width="541px" height="462px" viewBox="0 0 541 462" version="1.1" xmlns="http://www.w3.org/2000/svg" xmlns:xlink="http://www.w3.org/1999/xlink" xmlns:sketch="http://www.bohemiancoding.com/sketch/ns">
    <!-- Generator: Sketch 3.5.2 (25235) - http://www.bohemiancoding.com/sketch -->
    <title>Group 5</title>
    <desc>Created with Sketch.</desc>
    <defs>
        <path id="path-1" d="M538.990983,381.069244 C538.990983,381.069244 522.237889,381.069245 461.277499,381.069244 C445.58651,381.069245 427.629498,390.901206 409.89963,416.818732 C392.169762,442.736257 382.584393,439.065587 352.607081,442.736259 C326.135771,442.73626 83.5955242,461.37022 83.5955242,461.37022 C83.5955242,461.37022 76.0976135,460.690522 82.6107409,456.71457 C89.1238683,452.738618 333.532444,407.907631 347.220814,402.663194 C360.909183,397.418758 365.005457,399.934189 392.169764,363.573162 C419.33407,327.212134 486.522554,327.212134 486.522554,327.212134 L539.334743,327.212134 L538.990983,381.069244 Z"></path>
    </defs>
    <g id="Home" stroke="none" stroke-width="1" fill="none" fill-rule="evenodd" sketch:type="MSPage">
        <g id="-" sketch:type="MSArtboardGroup" transform="translate(-652.000000, -84.000000)">
            <g id="Group-5" sketch:type="MSLayerGroup" transform="translate(652.660977, 84.000000)">
                <g id="Path-2" opacity="0.615321828">
                    <use fill="none" sketch:type="MSShapeGroup" xlink:href="#path-1"></use>
                    <use fill="#EC5C1E" fill-rule="evenodd" xlink:href="#path-1"></use>
                </g>
                <path d="M275.463382,69.6905497 C242.696269,30.8246726 208.31735,4.57013646 208.31735,4.57013646 C208.31735,4.57013646 193.819474,-4.07877108 202.424762,10.3728587 C208.31735,18.4515658 158.872253,-50.7637869 259.044771,91.0519671 C359.217289,232.867721 405.098907,272.106264 466.833338,290.196846 C525.069245,305.83559 539.253515,299.415374 539.253515,299.415374 C539.253515,299.415374 539.253509,299.415376 539.253506,213.927278 C403.972215,208.470167 334.556032,143.696269 275.463382,69.6905497 Z" id="Path-6" fill-opacity="0.569999993" fill="#4374C5" sketch:type="MSShapeGroup"></path>
                <path d="M539.686746,243.96887 C539.686746,239.121995 410.853143,232.857026 342.456832,168.450392 C274.060521,104.043758 218.724572,88.9894916 166.843624,85.998061 C155.504766,88.9894914 166.843625,93.0317091 172.368202,93.0317093 C172.368202,93.0317093 244.583756,105.028628 287.351016,164.917013 C395.680568,316.614408 465.114359,308.503383 539.304507,315.449939 C539.304503,294.797708 539.304503,263.583566 539.686746,243.96887 Z" id="Path-7" fill-opacity="0.569999993" fill="#EC5C1E" sketch:type="MSShapeGroup"></path>
                <path d="M539.304499,281.097868 C539.304499,281.097868 503.693882,280.34534 460.428725,281.097867 C431.717257,281.597255 399.63483,274.546883 372.351548,248.855083 C322.956904,209.374471 322.030553,181.749849 270.149605,178.758419 C259.764667,181.749849 263.892572,185.092896 270.807601,185.792067 C270.807601,185.792067 301.508099,182.551969 329.064574,228.541595 C396.60376,341.259273 465.114359,311.300067 539.304507,318.246624 C539.304503,297.594393 539.304499,281.097868 539.304499,281.097868 Z" id="Path-7-Copy" fill-opacity="0.569999993" fill="#101B2D" sketch:type="MSShapeGroup"></path>
                <path d="M355.122458,384.965636 C337.450963,393.493106 355.987512,359.493756 359.932846,353.805892 C377.815231,327.950844 389.446778,308.142671 436.454642,303.948988 C483.462506,299.755305 539.581984,300.745507 539.581984,300.745507 L539.581985,363.72269 C539.581985,363.72269 404.195374,355.744642 355.122458,384.965636 Z" id="Path-2" fill-opacity="0.939999998" fill="#ED599F" sketch:type="MSShapeGroup"></path>
                <path d="M539.405495,316.377955 C539.405495,316.377955 203.59625,316.377959 157.680491,316.377959 C136.779735,316.377959 77.7962961,309.471162 63.2655635,289.786414 C63.2655635,285.229215 66.2368601,287.30239 66.2368601,287.30239 C66.2368601,287.30239 100.032061,302.501887 118.773075,299.260539 C81.3607215,281.169958 69.1874443,270.688591 69.1874443,270.688591 C69.1874443,270.688591 63.2655635,260.871776 74.4521743,265.866329 C74.4521743,265.866329 110.853383,287.30239 136.779735,289.574363 C166.005017,295.148269 245.151095,280.793189 345.250652,265.866329 C445.350209,250.93947 539.405493,240.514902 539.405493,240.514902 L539.405495,316.377955 Z" id="Path-4" opacity="0.61042444" fill="#FFC020" sketch:type="MSShapeGroup"></path>
                <path d="M539.013748,177.894248 C524.194633,177.894248 433.997806,185.201963 422.251957,96.9187897 C418.688814,82.1355478 412.908155,96.9187886 412.908155,96.9187886 C412.908155,96.9187886 380.527635,221.918941 539.013747,221.918933 C539.01375,196.221021 539.375278,203.065802 539.013748,177.894248 Z" id="Path-5" fill-opacity="0.569999993" fill="#ED599F" sketch:type="MSShapeGroup"></path>
                <path d="M539.013748,192.576844 C524.194633,192.576844 447.908491,212.772009 364.078435,113.48423 C334.293359,85.1978372 356.307038,117.985144 356.307038,117.985144 C356.307038,117.985144 409.444644,206.80447 539.013747,236.601529 C539.01375,210.903617 539.375278,217.748398 539.013748,192.576844 Z" id="Path-5-Copy" fill-opacity="0.569999993" fill="#101B2D" sketch:type="MSShapeGroup"></path>
                <path d="M539.72823,343.156862 L3.56923817,322.440259 C3.56923817,322.440259 -4.46154772,319.437468 3.56923817,315.904551 L539.812962,284.562689 L539.72823,343.156862 Z" id="Path-3" opacity="0.627915112" fill="#EC5C1E" sketch:type="MSShapeGroup"></path>
            </g>
        </g>
    </g>
</svg>