<?xml version="1.0" encoding="UTF-8"?>
<svg width="751px" height="109px" viewBox="0 0 751 109" version="1.1" xmlns="http://www.w3.org/2000/svg" xmlns:xlink="http://www.w3.org/1999/xlink">
    <!-- Generator: Sketch 42 (36781) - http://www.bohemiancoding.com/sketch -->
    <title>Group 14</title>
    <desc>Created with Sketch.</desc>
    <defs>
        <path d="M0.0623577242,19.1385687 C0.0434246322,18.2163704 0.733068797,17.7213233 1.59453679,18.0299181 L38.1096192,31.1103404 C38.9747514,31.4202479 39.6760796,32.414492 39.6760796,33.3295048 L39.6760796,47.3054258 C39.6760796,48.221129 38.9768855,48.6858656 38.1346142,48.351475 L1.8956354,33.9642159 C1.04430753,33.6262297 0.338879144,32.6074496 0.319888542,31.6824501 L0.0623577242,19.1385687 Z" id="path-1"></path>
        <mask id="mask-2" maskContentUnits="userSpaceOnUse" maskUnits="objectBoundingBox" x="0" y="0" width="39.6141026" height="30.5216656" fill="white">
            <use xlink:href="#path-1"></use>
        </mask>
        <linearGradient x1="65.5529829%" y1="43.5606865%" x2="68.4895698%" y2="54.3448022%" id="linearGradient-3">
            <stop stop-color="#72E8EC" offset="0%"></stop>
            <stop stop-color="#21BCC5" offset="100%"></stop>
        </linearGradient>
        <linearGradient x1="21.1559939%" y1="15.84046%" x2="21.1559936%" y2="50%" id="linearGradient-4">
            <stop stop-color="#14848A" offset="0%"></stop>
            <stop stop-color="#35C7CC" offset="100%"></stop>
        </linearGradient>
        <linearGradient x1="65.5529829%" y1="43.5606865%" x2="68.4895698%" y2="54.3448022%" id="linearGradient-5">
            <stop stop-color="#D8D8D8" offset="0%"></stop>
            <stop stop-color="#9B9B9B" offset="100%"></stop>
        </linearGradient>
        <linearGradient x1="21.1559939%" y1="15.84046%" x2="21.1559936%" y2="50%" id="linearGradient-6">
            <stop stop-color="#828282" offset="0%"></stop>
            <stop stop-color="#CACACA" offset="100%"></stop>
        </linearGradient>
        <path d="M0.0623577242,19.9785687 C0.0434246322,19.0563705 0.734790069,18.5368258 1.60958293,18.8191069 L37.254573,30.3211516 C38.128015,30.6029968 38.8360796,31.574492 38.8360796,32.4895048 L38.8360796,46.4654258 C38.8360796,47.381129 38.1353042,47.8697585 37.2798818,47.5600786 L1.91036778,34.7556123 C1.05090344,34.4444691 0.338879144,33.4474496 0.319888542,32.5224502 L0.0623577242,19.9785687 Z" id="path-7"></path>
        <mask id="mask-8" maskContentUnits="userSpaceOnUse" maskUnits="objectBoundingBox" x="0" y="0" width="38.7742516" height="28.9085637" fill="white">
            <use xlink:href="#path-7"></use>
        </mask>
        <path d="M0.0623577242,19.9785687 C0.0434246322,19.0563705 0.734790069,18.5368258 1.60958293,18.8191069 L37.254573,30.3211516 C38.128015,30.6029968 38.8360796,31.574492 38.8360796,32.4895048 L38.8360796,46.4654258 C38.8360796,47.381129 38.1353042,47.8697585 37.2798818,47.5600786 L1.91036778,34.7556123 C1.05090344,34.4444691 0.338879144,33.4474496 0.319888542,32.5224502 L0.0623577242,19.9785687 Z" id="path-9"></path>
        <mask id="mask-10" maskContentUnits="userSpaceOnUse" maskUnits="objectBoundingBox" x="0" y="0" width="38.7742516" height="28.9085637" fill="white">
            <use xlink:href="#path-9"></use>
        </mask>
    </defs>
    <g id="3" stroke="none" stroke-width="1" fill="none" fill-rule="evenodd">
        <g id="Artboard-Copy-7" transform="translate(-124.000000, -789.000000)">
            <g id="Group-14" transform="translate(123.000000, 789.000000)">
                <g id="Group-12-Copy-4" transform="translate(18.423370, 15.399999)" stroke="#2AF1FD">
                    <g id="Group-4-Copy-5" transform="translate(0.015757, 0.520078)">
                        <g id="Group-6" transform="translate(0.057756, 0.816999)">
                            <path d="M1.56019228,18.7213778 L49.5387284,0.41419619 C50.3949519,0.0874867747 51.8013733,0.0300314095 52.6848377,0.287257533 L81.4521478,8.66303754 C82.3334725,8.91964067 83.0479273,9.87395169 83.0479273,10.8008202 L83.0479273,23.9366951 C83.0479273,24.5478063 82.6117324,25.2642688 82.0656313,25.5410272 L38.9760413,47.3783834" id="Line" stroke-width="1.68000004" stroke-linecap="square"></path>
                            <use id="Rectangle-3-Copy-2" mask="url(#mask-2)" stroke-width="3.36000008" xlink:href="#path-1"></use>
                        </g>
                    </g>
                    <path d="M38.564122,33.7550398 L82.346662,12.4166604" id="Line" stroke-width="1.68000004" stroke-linecap="square"></path>
                </g>
                <g id="Group-8-Copy-5" transform="translate(40.960456, 2.399999)">
                    <circle id="Combined-Shape" fill="#FF6600" cx="15.1703128" cy="15.1703128" r="15.1703128"></circle>
                    <polygon id="Shape-Copy-31" fill="#FAF6F5" points="12.8700317 24.3557208 11.8507763 25.3749762 3.9574729 17.4816728 7.44190412 13.9972416 11.8567022 18.4120396 23.6729536 6.59578817 27.1514589 10.0742935"></polygon>
                </g>
                <g id="Group-4-Copy-20" transform="translate(237.279131, 15.920077)">
                    <g id="Group-6" transform="translate(0.057756, 0.816999)">
                        <path d="M0.720192259,18.7213778 L48.6987284,0.41419619 C49.5549519,0.0874867747 50.9613733,0.0300314095 51.8448377,0.287257533 L80.6121478,8.66303754 C81.4934725,8.91964067 82.2079273,9.87395169 82.2079273,10.8008202 L82.2079273,23.9366951 C82.2079273,24.5478063 81.7717324,25.2642688 81.2256313,25.5410272 L38.1360413,47.3783834" id="Line" fill="url(#linearGradient-3)"></path>
                        <path d="M0.318752944,20.2384335 C0.318752944,19.3192035 1.02017331,18.7972349 1.90048641,19.0773789 L37.2543461,30.3281188 C38.1279134,30.6061161 38.8360796,31.574492 38.8360796,32.4895048 L38.8360796,46.4654258 C38.8360796,47.381129 38.1346592,47.8710936 37.2784495,47.5630434 L1.87638304,34.8259628 C1.01612769,34.5164571 0.318752944,33.5297645 0.318752944,32.6011399 L0.318752944,20.2384335 Z" id="Rectangle-3" fill="url(#linearGradient-4)"></path>
                    </g>
                </g>
                <g id="Group-8-Copy-4" transform="translate(261.810461, 2.399999)">
                    <circle id="Combined-Shape" fill="#FF6600" cx="15.1703128" cy="15.1703128" r="15.1703128"></circle>
                    <polygon id="Shape-Copy-31" fill="#FAF6F5" points="12.8700317 24.3557208 11.8507763 25.3749762 3.9574729 17.4816728 7.44190412 13.9972416 11.8567022 18.4120396 23.6729536 6.59578817 27.1514589 10.0742935"></polygon>
                </g>
                <g id="Group-4-Copy-10" transform="translate(452.014569, 15.920077)">
                    <g id="Group-6" transform="translate(0.057756, 0.816999)">
                        <path d="M0.720192259,18.7213778 L48.6987284,0.41419619 C49.5549519,0.0874867747 50.9613733,0.0300314095 51.8448377,0.287257533 L80.6121478,8.66303754 C81.4934725,8.91964067 82.2079273,9.87395169 82.2079273,10.8008202 L82.2079273,23.9366951 C82.2079273,24.5478063 81.7717324,25.2642688 81.2256313,25.5410272 L38.1360413,47.3783834" id="Line" fill="url(#linearGradient-5)"></path>
                        <path d="M0.318752944,20.2384335 C0.318752944,19.3192035 1.02017331,18.7972349 1.90048641,19.0773789 L37.2543461,30.3281188 C38.1279134,30.6061161 38.8360796,31.574492 38.8360796,32.4895048 L38.8360796,46.4654258 C38.8360796,47.381129 38.1346592,47.8710936 37.2784495,47.5630434 L1.87638304,34.8259628 C1.01612769,34.5164571 0.318752944,33.5297645 0.318752944,32.6011399 L0.318752944,20.2384335 Z" id="Rectangle-3" fill="url(#linearGradient-6)"></path>
                        <path d="M4.15467511,19.9331756 L36.9339928,30.4875157 C37.7216728,30.7411343 38.3602136,31.6220581 38.3602136,32.4337637 L38.3602136,45.3488164 L5.71329972,33.3665765 C4.85249512,33.0506395 4.15467511,32.0474502 4.15467511,31.1394556 L4.15467511,19.9331756 Z" id="Rectangle-3-Copy" fill="#464645"></path>
                        <use id="Rectangle-3-Copy-2" stroke="#989898" mask="url(#mask-8)" stroke-width="1.84800008" xlink:href="#path-7"></use>
                        <path d="M8.37178346,27.3014698 C8.21503386,28.8802723 9.32376013,30.6040776 10.8481929,31.1516967 C12.3726256,31.6993158 13.7354932,30.8633764 13.8922428,29.2845739 C14.0489924,27.7057714 12.9402662,25.9819662 11.4158334,25.4343471 C9.89140063,24.886728 8.52853306,25.7226673 8.37178346,27.3014698 Z" id="Oval-5" fill="#AAAAAA"></path>
                    </g>
                </g>
                <path d="M327.048468,41.8 L445.258467,41.8" id="Line-Copy-20" stroke="#FF6600" stroke-width="2" stroke-linecap="square" stroke-dasharray="7"></path>
                <path d="M110.048468,41.8 L228.258467,41.8" id="Line-Copy-19" stroke="#FF6600" stroke-width="2" stroke-linecap="square" stroke-dasharray="7"></path>
                <text id="Set-Store-Name" font-family="RobotoCondensed-Regular, Roboto Condensed" font-size="16" font-style="condensed" font-weight="normal" fill="#737373">
                    <tspan x="12" y="87">Set Store Name</tspan>
                </text>
                <text id="store_name_here" font-family="RobotoCondensed-Bold, Roboto Condensed" font-size="18" font-style="condensed" font-weight="bold" fill="#FF6600">
                    <tspan x="0.5" y="107">store_name_here</tspan>
                </text>
                <text id="Set-Drive-Size" font-family="RobotoCondensed-Regular, Roboto Condensed" font-size="16" font-style="condensed" font-weight="normal" fill="#737373">
                    <tspan x="234" y="87">Set Drive Size</tspan>
                </text>
                <text id="400TB" font-family="RobotoCondensed-Bold, Roboto Condensed" font-size="18" font-style="condensed" font-weight="bold" fill="#FF6600">
                    <tspan x="255" y="107">400TB</tspan>
                </text>
                <text id="Select-Mount-Machine" font-family="RobotoCondensed-Regular, Roboto Condensed" font-size="16" font-style="condensed" font-weight="normal" fill="#737373">
                    <tspan x="422.264569" y="87">Select Mount Machine</tspan>
                </text>
                <text id="mount_machine_name_h" font-family="RobotoCondensed-Bold, Roboto Condensed" font-size="18" font-style="condensed" font-weight="bold" fill="#FF6600">
                    <tspan x="393.764569" y="107">mount_machine_name_here</tspan>
                </text>
                <path d="M544.048468,41.8 L662.258467,41.8" id="Line-Copy-18" stroke="#D1D1D1" stroke-width="2" stroke-linecap="square" stroke-dasharray="7"></path>
                <g id="Group-4-Copy-15" transform="translate(669.014569, 15.920077)">
                    <g id="Group-6" transform="translate(0.057756, 0.816999)">
                        <path d="M0.720192259,18.7213778 L48.6987284,0.41419619 C49.5549519,0.0874867747 50.9613733,0.0300314095 51.8448377,0.287257533 L80.6121478,8.66303754 C81.4934725,8.91964067 82.2079273,9.87395169 82.2079273,10.8008202 L82.2079273,23.9366951 C82.2079273,24.5478063 81.7717324,25.2642688 81.2256313,25.5410272 L38.1360413,47.3783834" id="Line" fill="url(#linearGradient-5)"></path>
                        <path d="M0.318752944,20.2384335 C0.318752944,19.3192035 1.02017331,18.7972349 1.90048641,19.0773789 L37.2543461,30.3281188 C38.1279134,30.6061161 38.8360796,31.574492 38.8360796,32.4895048 L38.8360796,46.4654258 C38.8360796,47.381129 38.1346592,47.8710936 37.2784495,47.5630434 L1.87638304,34.8259628 C1.01612769,34.5164571 0.318752944,33.5297645 0.318752944,32.6011399 L0.318752944,20.2384335 Z" id="Rectangle-3" fill="url(#linearGradient-6)"></path>
                        <path d="M4.15467511,19.9331756 L36.9339928,30.4875157 C37.7216728,30.7411343 38.3602136,31.6220581 38.3602136,32.4337637 L38.3602136,45.3488164 L5.71329972,33.3665765 C4.85249512,33.0506395 4.15467511,32.0474502 4.15467511,31.1394556 L4.15467511,19.9331756 Z" id="Rectangle-3-Copy" fill="#464645"></path>
                        <use id="Rectangle-3-Copy-2" stroke="#989898" mask="url(#mask-10)" stroke-width="1.84800008" xlink:href="#path-9"></use>
                        <path d="M8.37178346,27.3014698 C8.21503386,28.8802723 9.32376013,30.6040776 10.8481929,31.1516967 C12.3726256,31.6993158 13.7354932,30.8633764 13.8922428,29.2845739 C14.0489924,27.7057714 12.9402662,25.9819662 11.4158334,25.4343471 C9.89140063,24.886728 8.52853306,25.7226673 8.37178346,27.3014698 Z" id="Oval-5" fill="#AAAAAA"></path>
                    </g>
                </g>
                <text id="Confirm-Copy-3" font-family="RobotoCondensed-Bold, Roboto Condensed" font-size="16" font-style="condensed" font-weight="bold" fill="#737373">
                    <tspan x="685.264569" y="87">Confirm</tspan>
                </text>
                <g id="Logo-Only-Copy" transform="translate(690.357237, 0.085938)" fill="#FF6600">
                    <path d="M5.89574804,0.995245541 C8.63267328,0.995245541 10.8611579,3.22373012 10.8611579,5.96065536 C10.8611579,8.6975806 8.63267328,10.9260652 5.89574804,10.9260652 C3.1588228,10.9260652 0.930338223,8.6975806 0.930338223,5.96065536 C0.930338223,3.22373012 3.1588228,0.995245541 5.89574804,0.995245541 M5.89574804,0.0973609768 C2.66120003,0.0973609768 0.0324536589,2.72610735 0.0324536589,5.96065536 C0.0324536589,9.19520337 2.66120003,11.8239497 5.89574804,11.8239497 C9.13029605,11.8239497 11.7590424,9.19520337 11.7590424,5.96065536 C11.7590424,2.72610735 9.14111393,0.0973609768 5.89574804,0.0973609768" id="Shape"></path>
                    <path d="M17.6331547,2.45566019 C19.5695563,2.45566019 21.1381499,4.02425371 21.1381499,5.96065536 C21.1381499,7.89705701 19.5695563,9.46565052 17.6331547,9.46565052 C15.696753,9.46565052 14.1281595,7.89705701 14.1281595,5.96065536 C14.1281595,4.02425371 15.696753,2.45566019 17.6331547,2.45566019 M17.6331547,0.0973609768 C14.3986067,0.0973609768 11.7698603,2.72610735 11.7698603,5.96065536 C11.7698603,9.19520337 14.3986067,11.8239497 17.6331547,11.8239497 C20.8677027,11.8239497 23.4964491,9.19520337 23.4964491,5.96065536 C23.4964491,2.72610735 20.8677027,0.0973609768 17.6331547,0.0973609768" id="Shape"></path>
                    <path d="M29.3597435,0.259629272 C32.5077484,0.259629272 35.0607695,2.81265044 35.0607695,5.96065536 C35.0607695,9.10866028 32.5077484,11.6616814 29.3597435,11.6616814 C26.2117385,11.6616814 23.6587174,9.10866028 23.6587174,5.96065536 C23.6587174,2.81265044 26.2117385,0.259629272 29.3597435,0.259629272 M29.3597435,0.0973609768 C26.1251954,0.0973609768 23.4964491,2.72610735 23.4964491,5.96065536 C23.4964491,9.19520337 26.1251954,11.8239497 29.3597435,11.8239497 C32.5942915,11.8239497 35.2230378,9.19520337 35.2230378,5.96065536 C35.2230378,2.72610735 32.5942915,0.0973609768 29.3597435,0.0973609768" id="Shape"></path>
                    <path d="M5.89574804,13.6197189 C8.14586839,13.6197189 9.97409118,15.4479417 9.97409118,17.698062 C9.97409118,19.9481824 8.14586839,21.7764051 5.89574804,21.7764051 C3.64562769,21.7764051 1.8174049,19.9481824 1.8174049,17.698062 C1.82822279,15.4479417 3.65644557,13.6197189 5.89574804,13.6197189 M5.89574804,11.8239497 C2.66120003,11.8239497 0.0324536589,14.4526961 0.0324536589,17.6872441 C0.0324536589,20.9217921 2.66120003,23.5505385 5.89574804,23.5505385 C9.13029605,23.5505385 11.7590424,20.9217921 11.7590424,17.6872441 C11.7590424,14.4526961 9.14111393,11.8239497 5.89574804,11.8239497" id="Shape"></path>
                    <path d="M17.6331547,12.7218343 C20.3700799,12.7218343 22.5985645,14.9503189 22.5985645,17.6872441 C22.5985645,20.4241694 20.3700799,22.6526539 17.6331547,22.6526539 C14.8962295,22.6526539 12.6677449,20.4241694 12.6677449,17.6872441 C12.656927,14.9503189 14.8854116,12.7218343 17.6331547,12.7218343 M17.6331547,11.8239497 C14.3986067,11.8239497 11.7698603,14.4526961 11.7698603,17.6872441 C11.7698603,20.9217921 14.3986067,23.5505385 17.6331547,23.5505385 C20.8677027,23.5505385 23.4964491,20.9217921 23.4964491,17.6872441 C23.4964491,14.4526961 20.8677027,11.8239497 17.6331547,11.8239497" id="Shape"></path>
                    <path d="M29.3597435,14.6798717 C31.0256979,14.6798717 32.3779337,16.0321075 32.3779337,17.698062 C32.3779337,19.3640165 31.0256979,20.7162523 29.3597435,20.7162523 C27.693789,20.7162523 26.3415532,19.3640165 26.3415532,17.698062 C26.3415532,16.0321075 27.693789,14.6798717 29.3597435,14.6798717 M29.3597435,11.8239497 C26.1251954,11.8239497 23.4964491,14.4526961 23.4964491,17.6872441 C23.4964491,20.9217921 26.1251954,23.5505385 29.3597435,23.5505385 C32.5942915,23.5505385 35.2230378,20.9217921 35.2230378,17.6872441 C35.2230378,14.4526961 32.5942915,11.8239497 29.3597435,11.8239497" id="Shape"></path>
                    <path d="M5.89574804,26.8932654 C7.29125537,26.8932654 8.41631555,28.0291434 8.41631555,29.4138329 C8.41631555,30.8093402 7.28043749,31.9344004 5.89574804,31.9344004 C4.50024071,31.9344004 3.37518053,30.7985223 3.37518053,29.4138329 C3.37518053,28.0291434 4.50024071,26.8932654 5.89574804,26.8932654 M5.89574804,23.5613564 C2.66120003,23.5613564 0.0324536589,26.1901028 0.0324536589,29.4246508 C0.0324536589,32.6591988 2.66120003,35.2879452 5.89574804,35.2879452 C9.13029605,35.2879452 11.7590424,32.6591988 11.7590424,29.4246508 C11.7590424,26.1792849 9.14111393,23.5613564 5.89574804,23.5613564" id="Shape"></path>
                    <path d="M17.6331547,24.0481613 C20.5972555,24.0481613 23.0096442,26.4605499 23.0096442,29.4246508 C23.0096442,32.3887516 20.5972555,34.8011403 17.6331547,34.8011403 C14.6690538,34.8011403 12.2566652,32.3887516 12.2566652,29.4246508 C12.2566652,26.4605499 14.6690538,24.0481613 17.6331547,24.0481613 M17.6331547,23.5613564 C14.3986067,23.5613564 11.7698603,26.1901028 11.7698603,29.4246508 C11.7698603,32.6591988 14.3986067,35.2879452 17.6331547,35.2879452 C20.8677027,35.2879452 23.4964491,32.6591988 23.4964491,29.4246508 C23.4964491,26.1792849 20.8677027,23.5613564 17.6331547,23.5613564" id="Shape"></path>
                    <path d="M29.3597435,25.1840393 C31.6964069,25.1840393 33.6003549,27.0879873 33.6003549,29.4246508 C33.6003549,31.7613142 31.6964069,33.6652622 29.3597435,33.6652622 C27.02308,33.6652622 25.119132,31.7613142 25.119132,29.4246508 C25.119132,27.0879873 27.02308,25.1840393 29.3597435,25.1840393 M29.3597435,23.5613564 C26.1251954,23.5613564 23.4964491,26.1901028 23.4964491,29.4246508 C23.4964491,32.6591988 26.1251954,35.2879452 29.3597435,35.2879452 C32.5942915,35.2879452 35.2230378,32.6591988 35.2230378,29.4246508 C35.2230378,26.1792849 32.5942915,23.5613564 29.3597435,23.5613564" id="Shape"></path>
                </g>
            </g>
        </g>
    </g>
</svg>