<?xml version="1.0" encoding="UTF-8" standalone="no"?>
<svg width="690px" height="591px" viewBox="0 0 690 591" version="1.1" xmlns="http://www.w3.org/2000/svg" xmlns:xlink="http://www.w3.org/1999/xlink">
    <title>Group 5</title>
    <desc>Created with Sketch.</desc>
    <defs></defs>
    <g id="Home" stroke="none" stroke-width="1" fill="none" fill-rule="evenodd">
        <g id="-" transform="translate(-506.000000, -54.000000)">
            <g id="Group-5" style="mix-blend-mode: multiply;" transform="translate(506.000000, 54.000000)">
                <path d="M690.30576,488.049526 C690.30576,488.049526 668.849451,488.049528 590.775216,488.049526 C570.679184,488.049528 547.680973,500.641686 524.973672,533.835223 C502.266372,567.02876 489.990034,562.327596 451.596978,567.028762 C417.694189,567.028763 107.063891,590.893968 107.063891,590.893968 C107.063891,590.893968 97.4610385,590.023453 105.802643,584.931304 C114.144247,579.839154 427.167383,522.422445 444.698585,515.7057 C462.229788,508.988956 467.476039,512.210562 502.266374,465.641645 C537.05671,419.072727 623.107495,419.072727 623.107495,419.072727 L690.746027,419.072727 L690.30576,488.049526 Z" id="Path-2" fill="#EC5C1E" opacity="0.615321828"></path>
                <path d="M352.796178,89.255274 C310.830121,39.4783025 266.799763,5.85314341 266.799763,5.85314341 C266.799763,5.85314341 248.231795,-5.22383353 259.252907,13.2849052 C266.799763,23.6316053 203.473593,-65.0150663 331.768255,116.613634 C460.062917,298.242335 518.825208,348.496594 597.890785,371.665873 C672.475674,391.694993 690.641995,383.472385 690.641995,383.472385 C690.641995,383.472385 690.641987,383.472387 690.641984,273.984606 C517.382212,266.995482 428.478329,184.037146 352.796178,89.255274 Z" id="Path-6" fill-opacity="0.569999993" fill="#4374C5" style="mix-blend-mode: darken;"></path>
                <path d="M691.19685,312.459988 C691.19685,306.252416 526.194872,298.228638 438.597177,215.740671 C350.999482,133.252704 280.128679,113.972145 213.682823,110.140909 C199.160727,113.972145 213.682824,119.149163 220.758355,119.149164 C220.758355,119.149164 313.247496,134.514062 368.021113,211.215341 C506.762792,405.499826 595.689226,395.111734 690.707302,404.008447 C690.707297,377.558368 690.707297,337.581258 691.19685,312.459988 Z" id="Path-7" fill-opacity="0.569999993" fill="#EC5C1E" style="mix-blend-mode: multiply;"></path>
                <path d="M690.707292,360.012475 C690.707292,360.012475 645.099453,359.048684 589.68816,360.012473 C552.916317,360.652058 511.827162,351.622385 476.884451,318.717943 C413.622896,268.153658 412.436483,232.773779 345.990627,228.942543 C332.690252,232.773779 337.977013,237.055342 346.833348,237.950797 C346.833348,237.950797 386.152615,233.801083 421.445216,292.701705 C507.945159,437.063419 595.689226,398.693553 690.707302,407.590265 C690.707297,381.140187 690.707292,360.012475 690.707292,360.012475 Z" id="Path-7-Copy" fill-opacity="0.569999993" fill="#101B2D" style="mix-blend-mode: multiply;"></path>
                <path d="M454.818515,493.039781 C432.185975,503.961228 455.926421,460.416999 460.979357,453.13234 C483.881992,420.018821 498.778946,394.649757 558.983662,389.278752 C619.188378,383.907747 691.062677,385.175935 691.062677,385.175935 L691.062679,465.833151 C691.062679,465.833151 517.668021,455.615369 454.818515,493.039781 Z" id="Path-2" fill-opacity="0.939999998" fill="#ED599F" style="mix-blend-mode: multiply;"></path>
                <path d="M690.836642,405.196992 C690.836642,405.196992 260.753276,405.196997 201.947258,405.196997 C175.178885,405.196997 99.6366044,396.351206 81.0265557,371.140217 C81.0265558,365.303644 84.8320056,367.958836 84.8320056,367.958836 C84.8320056,367.958836 128.114774,387.425397 152.117086,383.274082 C104.201696,360.104802 88.6109283,346.680927 88.6109283,346.680927 C88.6109283,346.680927 81.0265558,334.108168 95.3536635,340.504877 C95.3536635,340.504877 141.974043,367.958836 175.178885,370.868636 C212.608788,378.007344 313.974109,359.622261 442.175327,340.504877 C570.376545,321.387494 690.836638,308.036364 690.836638,308.036364 L690.836642,405.196992 Z" id="Path-4" fill="#FFC020" style="mix-blend-mode: multiply;" opacity="0.61042444"></path>
                <path d="M690.334916,227.835768 C671.355526,227.835768 555.8371,237.195029 540.793757,124.127492 C536.230307,105.194045 528.826802,124.12749 528.826802,124.12749 C528.826802,124.12749 487.355869,284.219826 690.334915,284.219815 C690.334919,251.307546 690.797941,260.073911 690.334916,227.835768 Z" id="Path-5" fill-opacity="0.569999993" fill="#ED599F" style="mix-blend-mode: multiply;"></path>
                <path d="M690.334916,246.640313 C671.355526,246.640313 573.653032,272.50501 466.288767,145.343466 C428.141914,109.116033 456.33565,151.107954 456.33565,151.107954 C456.33565,151.107954 524.390955,264.862162 690.334915,303.024361 C690.334919,270.112092 690.797941,278.878457 690.334916,246.640313 Z" id="Path-5-Copy" fill-opacity="0.569999993" fill="#101B2D" style="mix-blend-mode: multiply;"></path>
                <path d="M691.249979,439.493731 L4.57125583,412.961209 C4.57125583,412.961209 -5.71406978,409.115424 4.57125583,404.590685 L691.3585,364.45 L691.249979,439.493731 Z" id="Path-3" fill="#EC5C1E" style="mix-blend-mode: multiply;" opacity="0.627915112"></path>
            </g>
        </g>
    </g>
</svg>
